#File generated from solving marker data for model walk1.trc
name solved_motion
datacolumns 41
datarows 14
range 1.2500000000 1.3580000000
units unknown
enforce_loops no
enforce_constraints no
endheader

time	lower_torso_TX	lower_torso_TY	lower_torso_TZ	lower_torso_RX	lower_torso_RY	lower_torso_RZ	lumbar_roll	lumbar_yaw	lumbar_pitch	neck_roll	neck_yaw	neck_pitch	arm_add_r	arm_rot_r	arm_flex_r	elbow_flex_r	pro_sup_r	wrist_dev_r	wrist_flex_r	arm_add_l	arm_rot_l	arm_flex_l	elbow_flex_l	pro_sup_l	wrist_dev_l	wrist_flex_l	hip_add_r	hip_rot_r	hip_flex_r	knee_flex_r	ankle_flex_r	subt_angle_r	toe_angle_r	hip_add_l	hip_rot_l	hip_flex_l	knee_flex_l	ankle_flex_l	subt_angle_l	toe_angle_l	
1.2500000000	-0.3654530992	0.2667671444	0.6856828705	86.7100531773	3.6243201805	-2.1837424912	8.4243531739	-0.5888877939	-15.6988828175	0.0000000000	0.0000000000	0.0000000000	-31.9453033852	-9.9999999996	14.8904533236	0.0000000000	70.0000000000	0.0000000000	0.0000000000	-31.9808013148	10.0000000000	39.9927630525	0.0000000000	70.0000000000	0.0000000000	0.0000000000	1.2979600200	8.5811887575	65.6132034461	97.1452053996	15.0696502944	18.4849102809	0.0000000000	-2.6881220978	16.1009101853	32.7132237140	104.5892927603	11.1721411663	20.0000000000	-0.0910000000	
1.2580000000	-0.3577330041	0.2645252584	0.6832568720	86.8104880019	4.1008754812	-2.5972411574	8.4108917975	-0.7371195613	-15.1058903808	0.0000000000	0.0000000000	0.0000000000	-31.7645922797	-9.9999999996	14.4264068392	0.0000000000	70.0000000000	0.0000000000	0.0000000000	-31.9343706661	10.0000000000	41.1225916264	0.0000000000	70.0000000000	0.0000000000	0.0000000000	1.5028951885	8.8249481270	65.6351143539	97.7314851342	15.7584674396	16.9605113699	0.0000000000	-2.4977796864	16.8684681032	33.9574360926	105.5478803845	9.3927325243	20.0000000000	-0.0920000000	
1.2670000000	-0.3486562864	0.2632340972	0.6825146614	86.6654715866	4.0639162116	-2.4503785436	8.7434991877	-0.6819681890	-15.1819427291	0.0000000000	0.0000000000	0.0000000000	-31.8270081893	-9.9999999996	14.3050841147	0.0000000000	70.0000000000	0.0000000000	0.0000000000	-31.3631714353	10.0000000000	41.7065094321	0.0000000000	70.0000000000	0.0000000000	0.0000000000	1.9994661099	9.0073667911	64.6615596466	98.3065656480	17.4878399310	17.4638844506	0.0000000000	-2.7615325590	16.9817539987	34.0342878026	106.3431372999	7.4647989928	20.0000000000	-0.0930000000	
1.2750000000	-0.3390876110	0.2623925090	0.6823117067	87.6809135853	3.9674421660	-2.1701316710	8.0527442914	-1.2054445855	-15.2383020422	0.0000000000	0.0000000000	0.0000000000	-31.7918328963	-9.9999999996	14.6128286230	0.0000000000	70.0000000000	0.0000000000	0.0000000000	-30.8703927899	10.0000000000	41.7695317752	0.0000000000	70.0000000000	0.0000000000	0.0000000000	1.5461054831	10.2135745403	63.6084170542	98.7913326041	18.7469082544	18.8766841843	0.0000000000	-2.0008179784	16.3075862307	33.8218846541	106.9115382356	4.2189208998	20.0000000000	-0.0940000000	
1.2830000000	-0.3315365531	0.2606569643	0.6807514368	87.3991400673	4.2096445520	-2.4472808742	8.5459978763	-1.5168016886	-14.9421990601	0.0000000000	0.0000000000	0.0000000000	-31.8704949766	-9.9999999996	14.7267093167	0.0000000000	70.0000000000	0.0000000000	0.0000000000	-30.8674331218	10.0000000000	42.2063019165	0.0000000000	70.0000000000	0.0000000000	0.0000000000	1.9974482002	9.8559705901	63.2741991582	98.9672738316	20.0992323299	17.7900614525	0.0000000000	-2.1933621647	16.7188934664	34.8145476442	107.8970783193	0.5390913578	20.0000000000	-0.0950000000	
1.2920000000	-0.3229565016	0.2588354331	0.6800509363	87.5951239856	4.2296485137	-2.4411684006	8.5395046726	-1.4792938990	-14.9231364549	0.0000000000	0.0000000000	0.0000000000	-31.8173295495	-9.9999999996	14.7489887085	0.0000000000	70.0000000000	0.0000000000	0.0000000000	-30.7552843149	10.0000000000	42.1552218456	0.0000000000	70.0000000000	0.0000000000	0.0000000000	2.1054503293	9.8532427501	62.5418638992	99.3284376117	20.1866630842	17.8028880748	0.0000000000	-2.2412881071	16.6670004658	35.4287968386	108.6450291391	0.5052422614	20.0000000000	-0.0960000000	
1.3000000000	-0.3158296855	0.2582571279	0.6790633830	87.4537863044	4.7200853498	-2.1833900795	8.8702022155	-1.7215346412	-15.1710327964	0.0000000000	0.0000000000	0.0000000000	-32.1683973440	-9.9999999996	14.5430295473	0.0000000000	70.0000000000	0.0000000000	0.0000000000	-30.4348261640	10.0000000000	43.2071110388	0.0000000000	70.0000000000	0.0000000000	0.0000000000	2.1891595995	9.4752692991	61.6078707959	99.8681242762	22.3640647876	16.9135580677	0.0000000000	-2.3238152344	17.4530441971	36.3227060878	109.9216935619	2.1090114862	20.0000000000	-0.0970000000	
1.3080000000	-0.3079122729	0.2571206298	0.6784421901	87.7308871100	4.3456362546	-2.4487742584	8.7873490367	-1.5160951596	-15.0567437345	0.0000000000	0.0000000000	0.0000000000	-32.3772960778	-9.9999999996	14.6812711651	0.0000000000	70.0000000000	0.0000000000	0.0000000000	-29.8290741101	10.0000000000	43.0965099232	0.0000000000	70.0000000000	0.0000000000	0.0000000000	2.0332057926	9.3813757459	61.3014714936	100.1976068550	22.8956719121	16.9039747273	0.0000000000	-2.1526812403	17.0360767173	37.0378795837	110.4599572804	-3.0657836945	20.0000000000	-0.0980000000	
1.3170000000	-0.2996380510	0.2555564571	0.6781375415	87.7071296695	4.0054402968	-2.4462664193	8.9114435591	-1.5285208762	-14.9761094526	0.0000000000	0.0000000000	0.0000000000	-32.5480929838	-9.9999999996	15.1089027563	0.0000000000	70.0000000000	0.0000000000	0.0000000000	-29.5894837653	10.0000000000	42.8522594985	0.0000000000	70.0000000000	0.0000000000	0.0000000000	2.2601061786	9.2009283740	60.6809920500	100.5678187652	23.5011425729	17.4725891789	0.0000000000	-2.5414287613	16.7736928337	37.5168925784	111.2164736384	-4.3439579009	20.0000000000	-0.0990000000	
1.3250000000	-0.2914521864	0.2538257114	0.6771835833	87.7950431623	3.6027887897	-2.7021417042	8.8097393289	-1.1394000212	-14.6500616466	0.0000000000	0.0000000000	0.0000000000	-32.6479715379	-9.9999999996	15.3019964519	0.0000000000	70.0000000000	0.0000000000	0.0000000000	-29.3166743529	10.0000000000	42.9497479639	0.0000000000	70.0000000000	0.0000000000	0.0000000000	2.6373180102	9.3210305947	60.5197580847	101.1652310891	23.6345709117	16.9433455753	0.0000000000	-2.7043140800	16.3371326968	38.7236382984	112.3270920719	2.2914785456	20.0000000000	-0.1000000000	
1.3330000000	-0.2843759215	0.2527364110	0.6770699766	87.8108846235	3.5055706918	-2.6039170867	8.8379187993	-1.0363793632	-14.8903503068	0.0000000000	0.0000000000	0.0000000000	-32.6738819025	-9.9999999996	15.7799668805	0.0000000000	70.0000000000	0.0000000000	0.0000000000	-28.9203322404	10.0000000000	43.1749101751	0.0000000000	70.0000000000	0.0000000000	0.0000000000	2.5451339545	9.1782325222	59.9054521048	101.6138767961	23.7169456269	16.9937831834	0.0000000000	-2.7671152880	15.9474507654	39.6225357151	112.9441473634	2.4030661624	20.0000000000	-0.1010000000	
1.3420000000	-0.2765726540	0.2501319868	0.6770821216	87.5558769473	2.8633160251	-2.5067137685	8.8838575725	-0.2457917502	-15.1531172542	0.0000000000	0.0000000000	0.0000000000	-32.7970323852	-9.9999999996	15.9148819591	0.0000000000	70.0000000000	0.0000000000	0.0000000000	-28.7803376153	10.0000000000	43.3412708494	0.0000000000	70.0000000000	0.0000000000	0.0000000000	3.3913338640	9.1834629275	59.3449241034	101.7415473358	24.2315410713	17.8454791103	0.0000000000	-3.9002306240	15.2192997730	40.3843297352	113.3789326036	3.7519739248	20.0000000000	-0.1020000000	
1.3500000000	-0.2686578837	0.2499442230	0.6770472465	87.5686207223	3.0248501873	-2.6600929648	9.1311794994	-0.5560004418	-14.6919114164	0.0000000000	0.0000000000	0.0000000000	-33.0098049515	-9.9999999996	16.1734892455	0.0000000000	70.0000000000	0.0000000000	0.0000000000	-28.4214953356	10.0000000000	42.6883950296	0.0000000000	70.0000000000	0.0000000000	0.0000000000	3.1577177145	8.9916739540	58.7275080300	101.9754305980	24.7441358158	18.6217366034	0.0000000000	-3.7989688308	15.0443632505	41.7394963139	113.8384669675	4.5118511071	18.9216472957	-0.1030000000	
1.3580000000	-0.2630230110	0.2489476175	0.6765947789	87.8443606342	2.6944238442	-2.8173947722	8.8358955894	-0.3894664232	-14.9668596668	0.0000000000	0.0000000000	0.0000000000	-33.3434659075	-9.9999999996	16.7543391347	0.0000000000	70.0000000000	0.0000000000	0.0000000000	-28.4780858571	10.0000000000	42.8376025519	0.0000000000	70.0000000000	0.0000000000	0.0000000000	3.0390526452	9.1667216997	58.6587622866	102.2500448325	25.1044760709	19.1671465358	0.0000000000	-3.6361096181	14.5152764956	43.1228025140	114.3435691202	4.8558275260	16.8298840961	-0.1040000000	
